# xmcd
#
# Track frame offsets:
#	150
#	20442
#	41233
#	62147
#	81361
#	96954
#	114803
#	128490
#	146039
#	167980
#	183499
#
# Disc length: 2704 seconds
#
# Revision: 0
# Processed by: cddbd v1.5.2PL0 Copyright (c) Steve Scherf et al.
# Submitted via: EasyCDDAExtractor 16.0.9.1
#
DISCID=960a8e0b
DTITLE=Various Artist - Xuân Với Đời Sống Mới
DYEAR=2011
DGENRE=Pop
TTITLE0=Tóc Tiên, Quỳnh Vi, Nguyệt Anh, Hương Giang, Diễm Sương and Kỳ Phương Uy
TTITLE0=ên - Ngày Tết Việt Nam
TTITLE1=Trịnh Lam and Lam Anh - Khúc Giao Mùa
TTITLE2=Mai Tiến Dũng and Tóc Tiên - Người Tình Ơi! Mơ Gì
TTITLE3=Lưu Bích and Trần Quang Vũ - Giao Mùa ©
TTITLE4=Thủy Tiên - Điệp Khúc Mùa Xuân
TTITLE5=Lương Tùng Quang - Chân Tình
TTITLE6=Như Loan - Phố Hoa
TTITLE7=Ngọc Anh - Xuân Với Đời Sống Mới
TTITLE8=Minh Tuyết - Hát Với Chú Ve Con
TTITLE9=Nguyễn Hưng - Tình Có Như Không
TTITLE10=Don Hồ and Kỳ Phương Uyên - Ca Khúc Mừng Xuân
EXTD=
EXTT0=
EXTT1=
EXTT2=
EXTT3=
EXTT4=
EXTT5=
EXTT6=
EXTT7=
EXTT8=
EXTT9=
EXTT10=
PLAYORDER=
